# xmcd
#
# Track frame offsets:
#	150
#	18416
#	34700
#	48898
#	60394
#	79012
#	90179
#	104265
#	121551
#	137489
#	149848
#	163998
#
# Disc length: 2349 seconds
# Revision: 0
# Processed by: cddbd v1.5.2PL0 Copyright (c) Steve Scherf et al.
# Submitted via: dBpowerAMP V12.0
#
DISCID=90092b0c
DTITLE=Brenton Manser with Caitlyn - The Edge Of Forgiveness
DYEAR=2014
DGENRE=Blues Folk
TTITLE0=Dogged Old Joy
TTITLE1=No Business...
TTITLE2=The Edge Of Forgiveness
TTITLE3=Waiting For My Man
TTITLE4=Acting Retired
TTITLE5=When We Were Not Wise
TTITLE6=Beyond Worry
TTITLE7=French Holiday
TTITLE8=Goodbye
TTITLE9=Perfect Imposters
TTITLE10=The Ineffectual Idler
TTITLE11=Don't Shut Me Out
EXTD=
EXTT0=
EXTT1=
EXTT2=
EXTT3=
EXTT4=
EXTT5=
EXTT6=
EXTT7=
EXTT8=
EXTT9=
EXTT10=
EXTT11=
PLAYORDER=
